HIERARCHY
ROOT Hips
{
	OFFSET -0.001795 -0.223333 0.028219
	CHANNELS 6 Xposition Yposition Zposition Zrotation Yrotation Xrotation 
	JOINT LeftUpLeg
	{
		OFFSET 0.069520 -0.091406 -0.006815
		CHANNELS 3 Zrotation Yrotation Xrotation
		JOINT LeftLeg
		{
			OFFSET 0.034277 -0.375199 -0.004496
			CHANNELS 3 Zrotation Yrotation Xrotation
			JOINT LeftFoot
			{
				OFFSET -0.013596 -0.397961 -0.043693
				CHANNELS 3 Zrotation Yrotation Xrotation
				JOINT LeftToe
				{
					OFFSET 0.026358 -0.055791 0.119288
					CHANNELS 3 Zrotation Yrotation Xrotation
					End Site
					{
						OFFSET 0.000000 0.000000 0.000000
					}
				}
			}
		}
	}
	JOINT RightUpLeg
	{
		OFFSET -0.067670 -0.090522 -0.004320
		CHANNELS 3 Zrotation Yrotation Xrotation
		JOINT RightLeg
		{
			OFFSET -0.038290 -0.382569 -0.008850
			CHANNELS 3 Zrotation Yrotation Xrotation
			JOINT RightFoot
			{
				OFFSET 0.015774 -0.398415 -0.042312
				CHANNELS 3 Zrotation Yrotation Xrotation
				JOINT RightToe
				{
					OFFSET -0.025372 -0.048144 0.123348
					CHANNELS 3 Zrotation Yrotation Xrotation
					End Site
					{
						OFFSET 0.000000 0.000000 0.000000
					}
				}
			}
		}
	}
	JOINT Spine
	{
		OFFSET -0.002533 0.108963 -0.026696
		CHANNELS 3 Zrotation Yrotation Xrotation
		JOINT Spine1
		{
			OFFSET 0.005487 0.135180 0.001092
			CHANNELS 3 Zrotation Yrotation Xrotation
			JOINT Spine2
			{
				OFFSET 0.001457 0.052922 0.025425
				CHANNELS 3 Zrotation Yrotation Xrotation
				JOINT Neck
				{
					OFFSET -0.002778 0.213870 -0.042857
					CHANNELS 3 Zrotation Yrotation Xrotation
					JOINT Head
					{
						OFFSET 0.005152 0.064970 0.051349
						CHANNELS 3 Zrotation Yrotation Xrotation
						End Site
						{
							OFFSET 0.000000 0.000000 0.000000
						}
					}
				}
				JOINT LeftShoulder
				{
					OFFSET 0.078845 0.121749 -0.034090
					CHANNELS 3 Zrotation Yrotation Xrotation
					JOINT LeftArm
					{
						OFFSET 0.090977 0.030469 -0.008868
						CHANNELS 3 Zrotation Yrotation Xrotation
						JOINT LeftForeArm
						{
							OFFSET 0.259612 -0.012772 -0.027456
							CHANNELS 3 Zrotation Yrotation Xrotation
							JOINT LeftHand
							{
								OFFSET 0.249234 0.008986 -0.001171
								CHANNELS 3 Zrotation Yrotation Xrotation
								End Site
								{
									OFFSET 0.000000 0.000000 0.000000
								}
							}
						}
					}
				}
				JOINT RightShoulder
				{
					OFFSET -0.081759 0.118833 -0.038615
					CHANNELS 3 Zrotation Yrotation Xrotation
					JOINT RightArm
					{
						OFFSET -0.096012 0.032551 -0.009143
						CHANNELS 3 Zrotation Yrotation Xrotation
						JOINT RightForeArm
						{
							OFFSET -0.253742 -0.013329 -0.021401
							CHANNELS 3 Zrotation Yrotation Xrotation
							JOINT RightHand
							{
								OFFSET -0.255298 0.007772 -0.005559
								CHANNELS 3 Zrotation Yrotation Xrotation
								End Site
								{
									OFFSET 0.000000 0.000000 0.000000
								}
							}
						}
					}
				}
			}
		}
	}
}
MOTION
Frames: 7
Frame Time: 0.050000
-0.050805 0.957707 0.006113 -2.555490 -7.537385 12.213261 5.315504 -0.491823 -8.272166 1.944345 0.095740 -6.137686 1.427175 6.480736 14.495521 0.000000 0.000000 0.000000 0.363270 1.035796 -10.130195 -4.096151 -0.271833 -9.042727 6.307885 -1.221850 26.109291 0.000000 0.000000 0.000000 3.072077 -0.320849 2.453378 -1.979520 0.897664 -2.413357 -5.402139 5.640469 3.784689 11.717713 -6.280725 -12.969400 0.000000 0.000000 0.000000 4.888736 -18.822505 6.105271 -15.779338 -48.171568 2.455049 9.648484 -6.939815 -0.307363 0.000000 0.000000 0.000000 3.671536 12.070076 4.603644 62.699181 54.647365 27.332100 -11.245641 47.033558 -2.501656 0.000000 0.000000 0.000000 
-0.050516 0.958051 0.006067 -2.410981 -7.274572 12.222800 5.066037 -0.509866 -8.315582 2.121367 0.091151 -6.230607 1.257667 6.275662 14.618190 0.000000 0.000000 0.000000 -0.083927 1.029466 -10.160507 -4.029183 -0.274579 -9.066536 7.006471 -0.295875 26.561530 0.000000 0.000000 0.000000 3.038746 -0.341426 2.793899 -2.032888 0.915506 -2.823161 -5.867759 5.598192 4.023386 12.306675 -6.537159 -13.509368 0.000000 0.000000 0.000000 4.697624 -18.124435 5.903153 -15.996994 -47.792655 2.459390 11.827628 -10.618376 -0.691431 0.000000 0.000000 0.000000 3.816468 11.394748 4.357844 62.196682 53.258458 26.082496 -14.514476 54.266682 -4.463857 0.000000 0.000000 0.000000 
-0.050107 0.957854 0.006721 -2.219167 -7.018009 12.147614 4.883999 -0.512443 -8.074119 2.057779 0.116675 -6.588752 1.091076 6.054205 14.634210 0.000000 0.000000 0.000000 -0.163905 1.000395 -9.914393 -4.331802 -0.283234 -9.257307 6.947966 -0.290340 26.479274 0.000000 0.000000 0.000000 3.190976 -0.367145 3.016344 -2.356255 1.054291 -2.929700 -6.252953 5.917398 4.078832 12.317979 -6.487417 -13.613890 0.000000 0.000000 0.000000 3.688844 -17.835806 5.860971 -16.720975 -47.032825 2.580522 13.801225 -16.898297 -1.441346 0.000000 0.000000 0.000000 4.725050 10.513424 4.097698 60.607645 51.129393 23.839990 -15.291541 60.816193 -5.391950 0.000000 0.000000 0.000000 
-0.049754 0.957570 0.007731 -2.062270 -7.085820 12.012310 5.025758 -0.487047 -7.628330 1.428791 0.175934 -7.023912 1.079756 6.034394 14.653740 0.000000 0.000000 0.000000 -0.475605 0.975873 -9.743015 -4.218442 -0.287804 -9.309965 7.102663 -0.094425 26.545753 0.000000 0.000000 0.000000 3.068855 -0.369712 3.215180 -2.242461 1.000614 -3.179186 -6.736300 6.469063 4.416101 12.611731 -6.435827 -14.534605 0.000000 0.000000 0.000000 3.046416 -17.556255 5.789186 -19.918822 -46.719224 3.557396 18.086997 -22.989618 -2.905540 0.000000 0.000000 0.000000 5.187812 10.328193 4.110709 59.869235 49.926869 22.710153 -13.950533 64.376960 -4.755213 0.000000 0.000000 0.000000 
-0.049673 0.957000 0.008298 -1.948259 -7.403527 12.076741 4.834555 -0.470053 -7.050255 1.460648 0.229737 -8.020059 1.173893 6.182446 14.850371 0.000000 0.000000 0.000000 -0.622432 0.953151 -9.548412 -4.083803 -0.305392 -9.571986 6.921267 -0.100407 25.777030 0.000000 0.000000 0.000000 3.282171 -0.362265 2.859879 -2.861958 1.281002 -2.509783 -6.837776 6.248009 3.844038 12.714686 -6.457277 -14.707440 0.000000 0.000000 0.000000 1.968814 -17.427420 5.800151 -22.908422 -46.548299 4.642085 22.792294 -28.084783 -4.770602 0.000000 0.000000 0.000000 5.696402 11.199232 4.471410 59.390666 49.470279 22.149251 -10.611798 65.723972 -2.899193 0.000000 0.000000 0.000000 
-0.050032 0.956236 0.007666 -1.886286 -7.674305 11.947093 5.131306 -0.441217 -6.694421 0.815379 0.278699 -8.385098 1.291685 6.324092 14.802277 0.000000 0.000000 0.000000 -0.661658 0.959790 -9.620818 -4.111554 -0.278078 -9.150389 6.932235 0.233350 24.929566 0.000000 0.000000 0.000000 3.171293 -0.343505 2.718453 -3.027964 1.360644 -2.230494 -7.023533 6.542808 3.915184 12.408328 -6.322235 -14.413270 0.000000 0.000000 0.000000 2.006955 -17.746655 5.894400 -23.417967 -47.667245 4.986917 24.954820 -30.772743 -5.885181 0.000000 0.000000 0.000000 6.049943 12.198051 4.947621 59.507308 50.881924 23.131200 -7.880343 63.400597 -1.120956 0.000000 0.000000 0.000000 
-0.050659 0.955919 0.006180 -1.915228 -7.806778 11.939873 5.498275 -0.420693 -6.528279 0.298828 0.320330 -8.766226 1.330626 6.388716 14.908642 0.000000 0.000000 0.000000 -0.634154 0.973408 -9.749178 -3.956054 -0.285325 -9.241742 6.877983 -0.001575 25.206357 0.000000 0.000000 0.000000 3.224884 -0.329740 2.455169 -3.250508 1.476558 -1.642596 -7.116154 6.741823 3.125045 12.571490 -6.447673 -14.089945 0.000000 0.000000 0.000000 2.734483 -18.664206 6.150283 -23.160266 -49.294657 5.206656 25.828289 -30.069102 -6.004592 0.000000 0.000000 0.000000 5.836675 13.727997 5.605421 60.639652 52.967248 25.247089 -6.979080 60.009174 -0.621913 0.000000 0.000000 0.000000 
